<?xml version="1.0" encoding="UTF-8" standalone="no"?>
<!-- Created with Inkscape (http://www.inkscape.org/) -->

<svg
   width="100"
   height="100"
   viewBox="0 0 26.458332 26.458332"
   version="1.1"
   id="svg1"
   inkscape:version="1.4 (86a8ad7, 2024-10-11)"
   sodipodi:docname="prato_edited.svg"
   xmlns:inkscape="http://www.inkscape.org/namespaces/inkscape"
   xmlns:sodipodi="http://sodipodi.sourceforge.net/DTD/sodipodi-0.dtd"
   xmlns="http://www.w3.org/2000/svg"
   xmlns:svg="http://www.w3.org/2000/svg">
  <sodipodi:namedview
     id="namedview1"
     pagecolor="#ffffff"
     bordercolor="#000000"
     borderopacity="0.25"
     inkscape:showpageshadow="2"
     inkscape:pageopacity="0.0"
     inkscape:pagecheckerboard="0"
     inkscape:deskcolor="#d1d1d1"
     inkscape:document-units="mm"
     inkscape:zoom="8"
     inkscape:cx="23.75"
     inkscape:cy="61.3125"
     inkscape:window-width="2400"
     inkscape:window-height="1271"
     inkscape:window-x="-9"
     inkscape:window-y="-9"
     inkscape:window-maximized="1"
     inkscape:current-layer="layer1" />
  <defs
     id="defs1" />
  <g
     inkscape:label="Layer 1"
     inkscape:groupmode="layer"
     id="layer1">
    <path
       d="m 17.693512,2.2277377 -0.09224,-0.013887 -0.02831,-0.0098 -0.234839,-0.093775 -0.01823,-0.020675 -0.02286,-0.036025 -0.01654,-0.031944 -0.0067,-0.00979 -0.04289,-0.063308 -0.02403,-0.01816 -0.0036,-0.00139 -0.03374,-0.016245 -0.0271,-0.00577 -0.03638,-0.00326 -0.05333,-0.00139 -0.775447,0.1268268 -0.03863,0.00876 -0.02778,0.012403 -0.01754,0.031426 -0.0111,0.032312 -0.0107,0.030988 -0.0083,0.014172 -0.01426,0.018793 -0.02083,0.00979 -0.02831,-0.00104 -0.294994,-0.03939 -0.05175,-0.00979 -0.03936,-0.011091 -0.134148,-0.054873 -0.0107,0.017997 -0.01888,0.034054 -0.03181,0.032153 -0.0445,0.044115 -0.03732,0.025294 -0.02914,0.017101 -0.475748,0.2723073 -0.643509,0.3599907 -0.0404,0.020787 -0.275073,0.1203224 -0.02197,0.080133 -0.01665,0.030849 -0.01225,0.019779 -0.08827,0.1200457 -0.01737,0.018654 -0.02012,0.00976 -0.305088,-0.00737 -0.322102,-0.1127143 -0.0281,-0.00876 -0.02678,-0.00876 -0.03198,3.905e-4 -0.925079,0.040763 -0.08476,0.014264 -0.03936,0.00977 -0.03191,0.013867 -0.04193,0.021243 -0.0283,0.018435 0.01229,0.1236396 0.20122,0.9821947 -0.222936,0.8408621 -0.149917,0.3933194 -0.0083,0.016605 -0.115898,0.204269 -0.03305,0.014774 -0.03494,0.023255 -0.268155,0.4920665 -0.01109,0.026034 -0.0083,0.027259 4.2e-4,0.029051 0.0083,0.024605 0.05403,0.08836 0.02028,0.030674 0.04945,0.073153 0.01867,0.019367 0.02333,0.015074 0.02065,0.014492 0.01603,0.018817 0.0036,0.016176 -0.10121,0.2817036 -0.09861,0.2109065 -0.328876,0.5950998 -0.284068,0.3438127 -0.285449,0.2428513 -0.238842,0.1064955 0.123082,0.6040903 0.405498,-0.1221188 0.335096,-0.066946 0.127792,-0.018224 0.05554,-0.00544 0.03866,0.00544 0.06563,0.022302 0.04751,0.020593 0.684445,0.3902772 0.504933,0.481841 0.360681,0.08659 -0.05931,0.1782678 -0.163329,0.511846 -0.01109,0.05568 -0.0107,0.03611 -0.04294,0.07373 -0.14384,0.189191 -0.193196,0.09239 -0.03765,0.01758 -0.02749,0.0107 -0.05197,0.01549 -0.05081,0.0063 -0.03527,0.01475 -0.03802,0.0264 -0.223633,0.17218 -0.0036,0.0031 -0.02728,0.02943 -0.183243,0.209385 -0.0273,0.03578 -0.01806,0.02467 -0.507556,0.707538 -0.03579,0.05441 -0.01773,0.03004 -0.02092,0.04812 -0.05791,0.168866 -0.0063,0.02325 -0.0078,0.0272 0.005,0.04651 0.0013,0.03973 -0.0012,0.0107 -0.005,0.03541 -0.02431,0.177362 -0.0107,0.03614 -0.129308,0.355285 -0.174117,0.470908 -0.112157,0.52775 0.01391,0.03941 0.0975,0.187532 0.07827,0.136919 0.04724,0.06259 0.05504,0.05045 0.03733,0.03477 0.01911,0.182418 -0.0035,0.0358 -0.01109,0.06344 -0.01644,0.05026 -0.02339,0.03072 0.01416,0.03783 -0.05424,0.08354 -0.02689,0.04918 -0.05911,0.111149 -0.01657,0.0341 -0.207145,0.482085 -0.101895,0.330262 -0.08657,0.555681 0.09361,0.06027 0.0913,0.08748 0.384194,0.612523 0.03119,0.081 -0.04091,0.17826 -0.04793,0.218791 -0.0079,0.04508 -8.78e-4,0.0457 0.03166,0.199981 0.0063,0.03135 5.34e-4,0.0034 0.09668,0.122257 0.02088,0.01886 0.04718,0.01662 0.06259,0.02895 0.04652,0.02165 0.02335,0.0123 0.01671,0.021 -0.04568,0.112158 -0.06675,-0.04231 -0.06715,-0.02271 -0.11777,-0.03202 -0.09917,-0.02097 -0.06581,-0.01229 -0.07404,0.07828 -0.06551,0.07467 -0.146456,0.17177 -0.107325,0.136498 -0.09733,0.133465 -0.03394,0.01647 -0.07951,0.02372 -0.04673,0.01409 -0.0459,0.0063 -0.074254,-0.02183 -0.073996,-0.03358 -0.031664,-0.0107 -0.1042791,-0.0053 -0.040242,0.0094 -0.4736744,0.199978 -0.044106,0.02246 -0.1920978,0.125024 -0.00698,0.0424 5.414e-4,0.05015 0.012435,0.04399 0.0029,0.01112 0.015497,0.05681 -0.0029,0.04177 -0.0041,0.02985 -0.0041,0.03358 -0.0029,0.01772 -0.0041,0.02294 -0.5285791,0.292084 -0.2147787,0.0096 -0.016442,0.008 -0.050334,0.02296 -0.1004041,0.09652 -0.033753,0.04944 0.1252994,0.326528 0.095709,0.163049 0.026824,0.04041 0.050212,0.03411 0.050741,0.03372 0.044669,0.02299 0.032899,0.03018 0.056979,0.06442 0.047011,0.06751 0.055873,0.08259 0.1118844,0.209668 0.028223,0.07942 0.0041,0.11396 -0.025175,0.195422 -0.013817,0.05863 -0.053108,0.157941 0.2966518,0.02472 0.041473,0.01402 0.1665115,0.109391 0.073835,0.05538 0.041477,0.03274 0.1760551,0.148672 0.1571079,0.133181 0.047164,0.01551 0.044953,0.01105 0.059318,0.01112 0.3901444,0.06613 0.200534,-0.02753 0.05298,-0.05401 0.193338,-0.152824 0.20067,-0.07227 0.08446,0.01112 0.0438,0.0107 0.0753,0.02305 0.02338,0.01435 0.0016,0.03287 -0.0111,0.05212 -0.0094,0.05384 -0.01628,0.114654 0.0015,0.05012 0.01425,0.04911 0.02108,0.0402 0.282818,0.380734 0.516269,0.159049 0.02297,0.03666 0.108566,0.172326 0.03305,0.04141 0.0582,0.04285 0.04549,0.02743 0.05606,0.0288 0.05823,0.01402 0.01552,0.0019 0.03415,0.0035 0.03802,-0.0107 0.03842,-0.01447 0.01755,-0.02405 0.0107,-0.0123 0.0067,-0.02267 0.0107,-0.03732 0.0036,-0.06275 -0.0036,-0.07123 0.0014,-0.07176 0.02472,-0.08078 0.184628,-0.572288 0.02309,-0.04399 0.029,-0.04243 0.02093,-0.01736 0.0083,-0.0056 0.05012,-0.0107 -0.267606,-0.162216 -0.0455,-0.02983 -0.05805,-0.04306 -0.03785,-0.04229 -0.0107,-0.05504 0.01224,-0.05822 0.01773,-0.01863 0.02045,-0.02115 0.242437,-0.184627 0.222244,-0.144253 0.437997,-0.284753 -0.05948,-0.02949 -0.05094,-0.02928 -0.282543,-0.231095 -0.02745,-0.02639 -0.08935,-0.145625 -0.01398,-0.02506 -0.0709,-0.179652 -0.032,-0.09568 -0.07466,-0.565646 0.03632,-0.126958 5.29e-4,-0.02237 0.0036,-0.02386 0.01533,-0.03021 0.302464,-0.438827 0.0273,-0.02088 0.0017,-5.32e-4 0.359857,0.09682 0.116318,0.100542 0.0053,0.01961 -0.0111,0.02314 -0.02531,0.04017 -0.02328,0.03002 0.0107,0.01737 0.04286,0.02469 0.187533,0.10217 0.01673,-0.0034 0.300244,-0.07655 0.202883,-0.06566 0.318087,-0.274112 0.09567,-0.09093 0.0083,-0.09033 -0.02641,-0.03305 -0.01231,-0.02265 0.988149,-1.520327 0.481564,-0.0107 0.142298,-0.225844 0.152825,-0.158636 0.126684,0.04055 0.07449,-0.118111 0.01842,-0.03021 0.142448,-0.353214 -0.0053,-0.02565 -0.04505,-0.184214 -0.156406,-0.339952 -0.20302,-0.222246 -0.02527,-0.03002 -0.233727,-0.286554 0.0067,-0.03795 0.0111,-0.03418 0.01584,-0.04945 0.02589,-0.07752 0.02456,-0.07246 0.03987,-0.07436 0.04083,-0.05758 0.04873,-0.05759 0.06264,-0.0429 0.04066,-0.0481 0.179514,-0.32376 0.105795,-0.199425 0.01413,-0.04588 -0.01551,-0.02549 -0.0339,-0.04048 -0.08764,-0.08664 -0.05433,-0.04727 -0.06103,-0.05832 -0.02659,-0.02799 0.02529,-0.02767 0.613773,-0.51157 0.109668,-0.07942 0.269962,0.0032 0.09386,0.0094 0.06085,3.96e-4 0.03391,-0.0063 0.01859,-0.02012 0.01419,-0.02012 0.03183,-0.04601 0.02028,-0.02993 -0.0107,-0.01641 -0.01925,-0.03954 -0.265297,-0.532749 -0.109123,-0.450991 0.01755,-0.0285 0.140374,-0.203025 0.228467,-0.109809 0.07807,-0.0272 0.04874,-0.01616 0.05176,-0.194593 0.105573,-0.431535 -0.04716,-0.109526 -0.07415,-0.174818 -0.146321,-0.40618 0.0067,-0.02295 5.21e-4,-0.0031 0.02795,-0.05219 0.0479,-0.116038 0.131522,-0.533137 0.0017,-0.06597 -0.01227,-0.0906 -0.02012,-0.05181 -0.0083,-0.01964 -0.08472,-0.134011 0.05554,-0.04649 0.24589,-0.3391118 0.0107,-0.01862 0.08697,-0.295823 0.0083,-0.0708 0.0017,-0.05172 -0.140056,-0.822115 -0.02641,-0.1143773 -0.03853,-0.038829 -0.07516,-0.037493 0.08284,-0.075102 0.299561,-0.258065 0.157246,-0.064734 0.06306,-0.037229 0.0651,-0.1056558 0.149631,-0.6884531 -0.0036,-0.021026 -0.03405,-0.1233626 -0.06324,-0.076052 -0.279939,-0.3357297 -0.18685,-0.2185122 -0.0053,-0.1022014 -2.61e-4,-0.1134027 0.04959,-0.3302608 0.0107,-0.024889 0.01398,-0.025318 0.03031,-0.028897 0.04107,-0.016174 0.03785,-0.015207 0.03031,-0.028902 0.02369,-0.036794 0.05132,-0.084626 0.02097,-0.036794 0.01109,-0.023813 0.01551,-0.079382 -0.03102,-0.2533639 -0.0107,-0.5390902 v -0.051029 l 0.05523,-0.2015039 0.104147,-0.1717657 0.467727,-0.3941504 0.04732,-0.039695 0.05388,-0.02712 0.112025,-0.042041 0.03253,-0.0041 0.02456,-0.0029 -0.107314,-0.4852912 -0.02977,-0.029599 -0.131107,-0.1590443 -0.01684,-0.049866 -0.0083,-0.031755 0.0107,-0.026578 0.05825,-0.1140963 0.0111,-0.017869 0.01225,-0.015052 0.01423,-0.011091 0.05932,-0.012384 0.01109,0.00103 -0.346854,-0.1855974 -0.403279,-0.1447967 -0.516407,-0.056652 -0.08542,-0.00979 -0.02506,-0.00321 z"
       id="path13"
       style="fill:#da251d;fill-opacity:1;stroke:#000000;stroke-width:0.103726;stroke-linejoin:round;stroke-miterlimit:4;stroke-dasharray:none;stroke-opacity:1" />
    <path
       style="fill:#f8c300;fill-opacity:1;fill-rule:evenodd;stroke:#808080;stroke-width:0.0139305"
       d="m 12.057932,23.742878 c -0.02545,-0.0107 -0.09499,-0.0891 -0.154193,-0.175245 -0.09474,-0.137668 -0.137099,-0.164468 -0.352086,-0.222658 -0.221749,-0.06015 -0.25785,-0.08404 -0.389449,-0.258275 -0.12827,-0.16989 -0.14505,-0.215739 -0.14505,-0.396392 0,-0.18069 -0.0107,-0.206851 -0.08284,-0.226505 -0.189847,-0.0509 -0.316891,-0.02129 -0.534894,0.124192 -0.248238,0.165748 -0.230479,0.162342 -0.5527592,0.106225 C 9.6501931,22.66004 9.5744531,22.6237 9.4013317,22.480836 9.0852354,22.219993 8.9685837,22.145766 8.8737471,22.145143 8.7175488,22.143843 8.6997799,22.108753 8.7396199,21.878206 8.7735809,21.681642 8.7689179,21.651736 8.6763819,21.472775 8.5421722,21.213233 8.4157513,21.04987 8.3274111,21.021828 c -0.043042,-0.01363 -0.120623,-0.1231 -0.189359,-0.267126 l -0.1164419,-0.243979 0.082836,-0.06705 c 0.045567,-0.03679 0.1349113,-0.06721 0.1985497,-0.06747 0.1490761,-5.51e-4 0.6373979,-0.269901 0.6687807,-0.368778 0.013049,-0.04087 0.013286,-0.122162 5.313e-4,-0.180188 -0.020067,-0.09126 -0.00684,-0.115223 0.098617,-0.17787 0.066978,-0.03984 0.2331709,-0.118589 0.3693107,-0.175094 0.2193589,-0.0911 0.2601837,-0.09751 0.3587456,-0.05659 0.2152398,0.08911 0.3348708,0.02901 0.5925128,-0.29813 0.233892,-0.29695 0.235134,-0.297853 0.376491,-0.275249 0.07803,0.01229 0.17385,0.0427 0.213003,0.06714 0.07947,0.0496 0.124105,0.02023 0.162432,-0.106961 0.01942,-0.06473 -0.0065,-0.09925 -0.132656,-0.184741 -0.198891,-0.13358 -0.232066,-0.265742 -0.153857,-0.612999 l 0.05634,-0.250736 -0.178468,-0.295501 c -0.09809,-0.162595 -0.234674,-0.361983 -0.303427,-0.443165 l -0.125,-0.147627 0.06227,-0.316862 c 0.0644,-0.327539 0.251882,-0.827692 0.417005,-1.11221 0.123623,-0.21301 0.132352,-0.51773 0.01844,-0.639904 -0.04195,-0.04502 -0.11669,-0.153202 -0.166142,-0.240607 -0.08733,-0.154507 -0.08855,-0.165755 -0.03894,-0.405438 0.02786,-0.135583 0.12365,-0.445548 0.212604,-0.688803 0.08901,-0.243264 0.173742,-0.541808 0.188416,-0.663439 0.03298,-0.273373 0.05749,-0.321684 0.412881,-0.815418 0.377602,-0.524582 0.609871,-0.750531 0.862141,-0.838679 0.303338,-0.106007 0.405382,-0.240684 0.581887,-0.768012 0.168942,-0.5049798 0.167574,-0.5128228 -0.09805,-0.5626508 -0.09568,-0.01797 -0.211205,-0.09705 -0.40246,-0.27567 -0.240588,-0.224699 -0.852706,-0.6153298 -1.062831,-0.6782692 -0.06046,-0.018071 -0.42554,0.045607 -0.851725,0.1485837 -0.09032,0.021776 -0.111992,-0.019291 -0.146203,-0.2772328 -0.02314,-0.1746033 -0.02076,-0.1807928 0.08601,-0.2179914 0.214753,-0.074865 0.603664,-0.522265 0.852555,-0.9807738 0.260446,-0.4798041 0.370309,-0.775214 0.315834,-0.8492274 -0.185761,-0.2523997 -0.180391,-0.2318751 -0.1049,-0.4001994 0.03835,-0.085281 0.122365,-0.2244267 0.186909,-0.3092057 0.21289,-0.2795909 0.286211,-0.4574054 0.472055,-1.1446575 l 0.12182,-0.450353 -0.110061,-0.521259 c -0.06046,-0.2866882 -0.09606,-0.5352381 -0.07894,-0.5523277 0.01696,-0.017053 0.271488,-0.041675 0.565315,-0.054637 0.439838,-0.019392 0.562759,-0.013179 0.695533,0.035199 0.0888,0.032272 0.258217,0.058731 0.376688,0.058731 0.212453,0 0.216562,-0.00209 0.299437,-0.1466019 0.04842,-0.084542 0.130868,-0.165268 0.194602,-0.1906731 0.167999,-0.066984 1.279725,-0.6959707 1.364097,-0.7718059 0.06121,-0.055091 0.09948,-0.060634 0.221139,-0.032441 0.08078,0.018735 0.219106,0.034417 0.307161,0.03496 0.125519,8.245e-4 0.163964,-0.013969 0.178017,-0.06764 0.01443,-0.055358 0.08804,-0.080216 0.381895,-0.1290001 0.489352,-0.081258 0.53797,-0.078581 0.611399,0.033487 0.08664,0.1320573 0.26399,0.1954267 0.673227,0.240407 0.336859,0.036981 0.781499,0.16512 0.927061,0.2670763 0.04725,0.032989 0.05712,0.063214 0.03355,0.1006654 -0.05842,0.092715 -0.0383,0.2201535 0.05513,0.3424248 0.115689,0.1516762 0.191769,0.4656547 0.12335,0.5090623 -0.02611,0.016605 -0.05834,0.030452 -0.07146,0.030755 -0.01313,3.105e-4 -0.153909,0.1086661 -0.312822,0.2407896 -0.412954,0.3433313 -0.437104,0.4001844 -0.438181,1.0313573 -0.0012,0.5627747 -0.02056,0.666105 -0.132121,0.7015562 -0.09516,0.030195 -0.1321,0.1317211 -0.163306,0.4483975 l -0.02523,0.2563236 0.286018,0.3436448 c 0.306864,0.3686928 0.313004,0.3871679 0.239091,0.719523 -0.09334,0.4195899 -0.107277,0.4500634 -0.229355,0.5006308 -0.136619,0.056598 -0.484421,0.3540268 -0.502653,0.4298576 -0.0082,0.028499 0.01442,0.071505 0.04733,0.095581 0.04088,0.029981 0.08452,0.1910952 0.137662,0.5109798 0.09343,0.5609652 0.07088,0.6899172 -0.180736,1.0315942 -0.155078,0.2106568 -0.15965,0.2241278 -0.104656,0.3080338 0.07747,0.118107 0.07149,0.276287 -0.02268,0.606337 -0.105435,0.370029 -0.100603,0.48431 0.03434,0.817334 0.09368,0.230995 0.108877,0.305387 0.08254,0.405435 -0.01779,0.06722 -0.04981,0.190781 -0.07151,0.274196 -0.03445,0.133503 -0.05939,0.159344 -0.207067,0.215745 -0.11604,0.04435 -0.197122,0.108417 -0.262929,0.207855 -0.09261,0.139909 -0.0938,0.149866 -0.04722,0.370368 0.02645,0.124634 0.111629,0.357996 0.189292,0.518591 0.0778,0.160593 0.141198,0.30734 0.141198,0.326104 0,0.01876 -0.112303,0.03411 -0.249554,0.03411 h -0.249472 l -0.377011,0.315103 c -0.20736,0.173316 -0.377028,0.33433 -0.377028,0.357802 0,0.02332 0.05841,0.102502 0.129902,0.175711 l 0.129899,0.13302 -0.141644,0.25553 c -0.07795,0.140536 -0.191319,0.307878 -0.252034,0.371855 -0.106649,0.112404 -0.198349,0.334348 -0.197353,0.477666 2.78e-4,0.03831 0.10117,0.185536 0.224203,0.327445 0.229038,0.264135 0.401891,0.579617 0.401891,0.733512 0,0.04744 -0.034,0.163152 -0.07558,0.256947 -0.05897,0.133466 -0.09439,0.170549 -0.162581,0.170549 -0.08245,0 -0.183602,0.0926 -0.314842,0.28815 -0.04498,0.06686 -0.1024,0.0867 -0.304172,0.105177 l -0.248872,0.02288 -0.500757,0.772552 c -0.334307,0.515763 -0.494709,0.795683 -0.482561,0.842132 0.02811,0.107913 -0.364277,0.418631 -0.600351,0.475271 -0.240793,0.05786 -0.369575,0.02749 -0.369575,-0.08688 0,-0.120481 -0.09567,-0.192658 -0.339271,-0.255862 -0.248443,-0.06457 -0.253635,-0.06168 -0.461838,0.250849 -0.18421,0.276495 -0.205796,0.375051 -0.157597,0.719466 0.06392,0.456535 0.13477,0.620133 0.366929,0.846975 l 0.207465,0.202723 -0.406369,0.277793 c -0.468691,0.320404 -0.543983,0.430291 -0.386797,0.564545 0.05101,0.04336 0.129357,0.103981 0.174289,0.134379 l 0.08175,0.05535 -0.128967,0.395131 c -0.07105,0.21733 -0.128969,0.445383 -0.128969,0.506794 0,0.111263 -0.05171,0.136942 -0.175513,0.08699 z"
       id="path1" />
  </g>
</svg>
