<?xml version="1.0" encoding="UTF-8" standalone="no"?>
<!-- Created with Inkscape (http://www.inkscape.org/) -->

<svg
   width="210mm"
   height="297mm"
   viewBox="0 0 210 297"
   version="1.1"
   id="svg1"
   inkscape:version="1.4 (86a8ad7, 2024-10-11)"
   sodipodi:docname="prato.svg"
   xmlns:inkscape="http://www.inkscape.org/namespaces/inkscape"
   xmlns:sodipodi="http://sodipodi.sourceforge.net/DTD/sodipodi-0.dtd"
   xmlns="http://www.w3.org/2000/svg"
   xmlns:svg="http://www.w3.org/2000/svg">
  <sodipodi:namedview
     id="namedview1"
     pagecolor="#ffffff"
     bordercolor="#000000"
     borderopacity="0.25"
     inkscape:showpageshadow="2"
     inkscape:pageopacity="0.0"
     inkscape:pagecheckerboard="0"
     inkscape:deskcolor="#d1d1d1"
     inkscape:document-units="mm"
     inkscape:zoom="0.93806818"
     inkscape:cx="396.55966"
     inkscape:cy="646.54149"
     inkscape:window-width="2400"
     inkscape:window-height="1271"
     inkscape:window-x="-9"
     inkscape:window-y="-9"
     inkscape:window-maximized="1"
     inkscape:current-layer="layer1" />
  <defs
     id="defs1" />
  <g
     inkscape:label="Layer 1"
     inkscape:groupmode="layer"
     id="layer1">
    <path
       d="m 134.57797,99.449562 -0.70591,-0.10583 -0.21696,-0.0741 -1.79705,-0.71755 -0.13864,-0.15769 -0.17357,-0.27517 -0.127,-0.24447 -0.0423,-0.0741 -0.32703,-0.48472 -0.18415,-0.13864 -0.0212,-0.0106 -0.25718,-0.12383 -0.20637,-0.0423 -0.28046,-0.0212 -0.40746,-0.0106 -5.93408,0.9705 -0.29739,0.0635 -0.21378,0.0953 -0.13441,0.24024 -0.0847,0.24765 -0.0741,0.23706 -0.0529,0.10795 -0.109,0.14394 -0.15875,0.0741 -0.21696,-0.007 -2.25743,-0.30163 -0.39687,-0.0741 -0.30163,-0.0847 -1.02658,-0.42016 -0.0635,0.13759 -0.14605,0.26035 -0.24236,0.24659 -0.33973,0.33761 -0.28575,0.19367 -0.22225,0.13124 -3.64066,2.083848 -4.92443,2.75485 -0.30797,0.15875 -2.10503,0.92075 -0.16827,0.61277 -0.12806,0.23601 -0.0952,0.15134 -0.67522,0.91863 -0.13335,0.14288 -0.15345,0.0741 -2.33469,-0.0529 -2.46487,-0.86254 -0.2159,-0.0635 -0.20425,-0.0635 -0.24448,0.003 -7.079194,0.31221 -0.648758,0.109 -0.301625,0.0741 -0.243417,0.10584 -0.320675,0.16298 -0.216958,0.14076 0.09525,0.94615 1.539875,7.51628 -1.706033,6.43467 -1.147233,3.0099 -0.05292,0.127 -0.886883,1.56316 -0.252942,0.11324 -0.267758,0.1778 -2.052109,3.76554 -0.08467,0.19897 -0.05292,0.20849 0.0032,0.22225 0.05292,0.18839 0.414866,0.67627 0.154517,0.23495 0.377825,0.55986 0.142875,0.14817 0.179917,0.11535 0.156633,0.11113 0.121708,0.14393 0.02117,0.12383 -0.776817,2.15582 -0.754591,1.61396 -2.516717,4.554 -2.173817,2.63102 -2.1844,1.85843 -1.827741,0.81492 0.941917,4.6228 3.103033,-0.93451 2.564341,-0.51223 0.9779,-0.1397 0.424392,-0.0423 0.297392,0.0423 0.502708,0.17039 0.365125,0.15769 5.237691,2.98662 3.863979,3.68724 2.760134,0.66251 -0.45403,1.3642 -1.24989,3.91688 -0.0847,0.42545 -0.0741,0.27623 -0.33019,0.56409 -1.100675,1.4478 -1.478491,0.70697 -0.287867,0.1344 -0.210608,0.0741 -0.398992,0.11853 -0.388408,0.0423 -0.269875,0.11325 -0.289984,0.20214 -1.711325,1.31762 -0.02117,0.0212 -0.207434,0.22437 -1.402291,1.60231 -0.207433,0.27305 -0.137584,0.18839 -3.884083,5.41443 -0.27305,0.41698 -0.135467,0.23072 -0.159808,0.3683 -0.442383,1.29222 -0.04233,0.17886 -0.05292,0.20744 0.03175,0.3556 0.0095,0.30374 -0.0074,0.0741 -0.03175,0.27093 -0.1905,1.35361 -0.07408,0.27623 -0.989542,2.71886 -1.332441,3.60362 -0.858309,4.0386 0.105834,0.30163 0.746125,1.4351 0.600075,1.04775 0.360891,0.47836 0.421217,0.38629 0.28575,0.2667 0.147108,1.39595 -0.02117,0.27305 -0.08467,0.48577 -0.124883,0.38523 -0.179917,0.23495 0.10795,0.28893 -0.415925,0.63923 -0.205317,0.37571 -0.456141,0.84773 -0.127,0.2614 -1.586442,3.6883 -0.779991,2.5273 -0.662517,4.25238 0.716492,0.46037 0.698499,0.66993 2.94005,4.68736 0.238125,0.62018 -0.314325,1.36419 -0.367241,1.67428 -0.05292,0.34502 -0.0053,0.35031 0.2413,1.53035 0.04233,0.23918 0.0042,0.0212 0.739775,0.93557 0.160867,0.14499 0.359833,0.12806 0.478367,0.22119 0.3556,0.16616 0.179916,0.0952 0.129117,0.16086 -0.350308,0.85831 -0.511175,-0.32385 -0.515409,-0.17357 -0.903816,-0.24765 -0.758825,-0.1598 -0.503767,-0.0953 -0.567267,0.60007 -0.50165,0.5715 -1.120774,1.31445 -0.821267,1.04458 -0.745067,1.02129 -0.26035,0.12594 -0.608541,0.18203 -0.357717,0.10689 -0.351367,0.0423 -0.568325,-0.16722 -0.566208,-0.25612 -0.242358,-0.0741 -0.797984,-0.0317 -0.307975,0.0635 -3.624791,1.53035 -0.337609,0.17145 -1.470024,0.95673 -0.05292,0.32385 0.0042,0.38418 0.09525,0.33655 0.02117,0.0847 0.118533,0.43497 -0.02117,0.31962 -0.03175,0.22966 -0.03175,0.25611 -0.02117,0.13547 -0.03175,0.17462 -4.04495,2.2352 -1.643592,0.0635 -0.125941,0.0529 -0.385234,0.17463 -0.76835,0.73871 -0.258233,0.37889 0.95885,2.49872 0.732367,1.24778 0.205316,0.30797 0.384175,0.26035 0.388409,0.25718 0.341841,0.17462 0.251884,0.23178 0.436033,0.49212 0.359833,0.51753 0.427567,0.63288 0.856192,1.60443 0.2159,0.60749 0.03175,0.87206 -0.192617,1.49543 -0.105833,0.44979 -0.4064,1.20862 2.270125,0.18838 0.3175,0.10583 1.274233,0.83714 0.56515,0.42334 0.3175,0.25082 1.347258,1.13771 1.202267,1.01918 0.360891,0.11853 0.343959,0.0847 0.454025,0.0847 2.985558,0.50589 1.534583,-0.21167 0.405342,-0.41381 1.47955,-1.16946 1.535641,-0.55351 0.645584,0.0847 0.335491,0.0635 0.575734,0.17568 0.179916,0.11113 0.01058,0.25188 -0.08467,0.40005 -0.0635,0.41275 -0.123825,0.87736 0.01058,0.38418 0.110067,0.37465 0.160867,0.30691 2.164291,2.91359 3.950759,1.21709 0.174625,0.28151 0.830791,1.31869 0.252942,0.3175 0.4445,0.32702 0.34925,0.20849 0.428625,0.22014 0.445558,0.10583 0.118533,0.0106 0.261409,0.0212 0.289983,-0.0635 0.295275,-0.11218 0.134408,-0.18415 0.0635,-0.0952 0.04233,-0.17251 0.07408,-0.28575 0.02117,-0.48154 -0.02117,-0.54399 0.0095,-0.55033 0.188383,-0.61912 1.41288,-4.37939 0.17674,-0.33655 0.22119,-0.32385 0.16087,-0.13335 0.0529,-0.0318 0.384174,-0.0741 -2.047879,-1.24143 -0.34925,-0.22965 -0.443442,-0.33126 -0.288925,-0.32279 -0.07408,-0.42122 0.09525,-0.44556 0.135467,-0.14182 0.155575,-0.16298 1.85526,-1.41287 1.700734,-1.10385 3.35175,-2.1791 -0.45509,-0.22437 -0.38946,-0.22331 -2.16218,-1.76847 -0.20849,-0.20215 -0.68475,-1.11442 -0.10583,-0.1905 -0.541864,-1.37478 -0.24659,-0.73236 -0.571499,-4.32859 0.278339,-0.97155 0.004,-0.17039 0.0212,-0.18309 0.11748,-0.23177 2.314574,-3.3581 0.20743,-0.15875 0.0106,-0.006 2.75378,0.74084 0.89008,0.76941 0.0318,0.15028 -0.0847,0.1778 -0.19367,0.30692 -0.17992,0.23071 0.0741,0.13335 0.32703,0.18839 1.43509,0.7821 0.12911,-0.0212 2.29764,-0.58632 1.55258,-0.50271 2.43417,-2.09761 0.73236,-0.69533 0.0529,-0.69109 -0.20214,-0.25294 -0.0953,-0.17251 7.56179,-11.63426 3.68512,-0.0741 1.08903,-1.72826 1.16946,-1.21391 0.96943,0.31009 0.57044,-0.90381 0.1397,-0.23178 1.09009,-2.70298 -0.0318,-0.19685 -0.34396,-1.4097 -1.19592,-2.60138 -1.55363,-1.70075 -0.19368,-0.23071 -1.78858,-2.19287 0.0423,-0.28998 0.0847,-0.26247 0.12065,-0.37782 0.19897,-0.59267 0.18732,-0.55457 0.3048,-0.56938 0.31327,-0.44027 0.37253,-0.44026 0.47943,-0.32915 0.3122,-0.3683 1.37372,-2.47755 0.80963,-1.52612 0.10689,-0.35137 -0.11854,-0.19579 -0.25823,-0.30903 -0.67098,-0.66252 -0.41699,-0.36089 -0.46778,-0.44662 -0.2032,-0.21484 0.19262,-0.21272 4.69688,-3.91478 0.83926,-0.60748 2.06587,0.0212 0.7186,0.0635 0.46673,0.003 0.25823,-0.0423 0.14182,-0.15346 0.10689,-0.15346 0.24342,-0.35243 0.15451,-0.22965 -0.0635,-0.12489 -0.14816,-0.30268 -2.03094,-4.07564 -0.83503,-3.45123 0.13441,-0.21801 1.07421,-1.55364 1.74836,-0.84031 0.5969,-0.20744 0.37254,-0.12276 0.39687,-1.48908 0.80645,-3.30306 -0.35983,-0.8382 -0.56833,-1.33773 -1.11971,-3.10833 0.0423,-0.17462 0.004,-0.0212 0.21485,-0.40005 0.36724,-0.88794 1.00647,-4.07987 0.0106,-0.50483 -0.0953,-0.69321 -0.15346,-0.39687 -0.0529,-0.15028 -0.64982,-1.02553 0.4244,-0.3556 1.88171,-2.59503 0.0741,-0.14288 0.66675,-2.26377 0.0529,-0.54187 0.0106,-0.39582 -1.0721,-6.29179 -0.20214,-0.87524 -0.29421,-0.29739 -0.57468,-0.28681 0.635,-0.57468 2.29235,-1.97485 1.20333,-0.4953 0.48365,-0.28469 0.49954,-0.80856 1.14511,-5.26838 -0.0212,-0.16087 -0.25929,-0.94403 -0.48472,-0.58209 -2.14313,-2.56645 -1.4298,-1.67217 -0.0318,-0.78211 -0.002,-0.86783 0.381,-2.5273 0.0635,-0.1905 0.10583,-0.19367 0.23284,-0.2212 0.31538,-0.12382 0.28892,-0.11642 0.23284,-0.22119 0.18203,-0.28152 0.39158,-0.6477 0.15981,-0.28151 0.0847,-0.18204 0.11853,-0.60748 -0.23706,-1.93887 -0.0635,-4.12538 v -0.38735 l 0.42227,-1.54199 0.79693,-1.31445 3.57928,-3.01625 0.36301,-0.30374 0.41169,-0.20744 0.85725,-0.32173 0.24977,-0.0318 0.18732,-0.0212 -0.82127,-3.71369 -0.22754,-0.22648 -1.0033,-1.21709 -0.13017,-0.38205 -0.0529,-0.24236 0.0635,-0.2032 0.44662,-0.87313 0.0847,-0.13652 0.0953,-0.11536 0.10795,-0.0847 0.45403,-0.0952 0.0847,0.007 -2.6543,-1.42028 -3.0861,-1.108078 -3.95182,-0.43392 -0.65405,-0.0741 -0.1905,-0.0212 z"
       id="path13"
       style="fill:#da251d;fill-opacity:1;stroke:#000000;stroke-width:0.79375;stroke-linejoin:round;stroke-miterlimit:4;stroke-dasharray:none;stroke-opacity:1" />
    <path
       style="fill:#f8c300;fill-rule:evenodd;stroke:#808080;stroke-width:0.402905;fill-opacity:1"
       d="m 345.64432,998.15101 c -0.73995,-0.29808 -2.74685,-2.57893 -4.45975,-5.06856 -2.73949,-3.9817 -3.96525,-4.75689 -10.18327,-6.44003 -6.41361,-1.73609 -7.45779,-2.42855 -11.26405,-7.4699 -3.70991,-4.91374 -4.19515,-6.23986 -4.19515,-11.46486 0,-5.22612 -0.27699,-5.98265 -2.39855,-6.5512 -5.49061,-1.47143 -9.16514,-0.61821 -15.47024,3.59218 -7.17879,4.79381 -6.66505,4.69509 -15.98635,3.07185 -5.68181,-0.98943 -7.87243,-2.03906 -12.87957,-6.17117 -9.14221,-7.54456 -12.5161,-9.69135 -15.25905,-9.70925 -4.51769,-0.0295 -5.03161,-1.05229 -3.87935,-7.72063 0.98237,-5.68508 0.84744,-6.55021 -1.82893,-11.72623 -3.88149,-7.50669 -7.53793,-12.23173 -10.09298,-13.04267 -1.24495,-0.39514 -3.48876,-3.56043 -5.4768,-7.72599 l -3.36782,-7.05662 2.39612,-1.94026 c 1.31787,-1.06715 3.90204,-1.94661 5.7426,-1.95436 4.31172,-0.0181 18.43535,-7.80599 19.34303,-10.66583 0.3771,-1.18813 0.38404,-3.53339 0.0154,-5.21169 -0.58016,-2.64145 -0.19693,-3.33271 2.85212,-5.14455 1.93728,-1.15121 6.74396,-3.43009 10.68151,-5.06418 6.34449,-2.63297 7.52525,-2.81944 10.37594,-1.63865 6.22535,2.57863 9.68528,0.83772 17.13695,-8.62265 6.76502,-8.58864 6.80078,-8.61479 10.88915,-7.96103 2.25602,0.36075 5.02834,1.23452 6.16073,1.9417 2.29729,1.43469 3.58946,0.58383 4.6981,-3.09356 0.56376,-1.86999 -0.1545,-2.87029 -3.83676,-5.34333 -5.75267,-3.86354 -6.7121,-7.68602 -4.45014,-17.72982 l 1.63311,-7.2515 -5.16175,-8.5467 c -2.83896,-4.70068 -6.78875,-10.46777 -8.77731,-12.81574 l -3.61557,-4.26905 1.80067,-9.16449 c 1.86133,-9.47324 7.28496,-23.93926 12.06061,-32.16828 3.57549,-6.16099 3.82812,-14.97433 0.53052,-18.50786 -1.2128,-1.29958 -3.37526,-4.43115 -4.80546,-6.95907 -2.52827,-4.46878 -2.55957,-4.79389 -1.12903,-11.72623 0.80924,-3.9215 3.57638,-12.88652 6.14921,-19.92226 2.57283,-7.03573 5.02518,-15.6705 5.44967,-19.18837 0.95408,-7.90672 1.66166,-9.30417 11.9415,-23.58434 10.92205,-15.17228 17.64016,-21.70732 24.93636,-24.25683 8.77399,-3.0659 11.72538,-6.96121 16.83039,-22.21317 4.88816,-14.60409 4.84868,-14.83085 -2.83373,-16.27208 -2.76736,-0.51916 -6.10723,-2.80709 -11.63883,-7.97298 -6.95893,-6.49888 -24.66309,-17.79705 -30.74034,-19.6174 -1.74631,-0.52309 -12.30785,1.31941 -24.63429,4.29753 -2.61156,0.63097 -3.23825,-0.55745 -4.22787,-8.01758 -0.66993,-5.0502 -0.59937,-5.22908 2.48728,-6.30509 6.21114,-2.16521 17.45955,-15.10527 24.65835,-28.36671 7.53301,-13.87712 10.71071,-22.42115 9.13502,-24.56181 -5.37285,-7.29931 -5.21723,-6.70558 -3.03378,-11.57402 1.10628,-2.46667 3.53893,-6.49105 5.40589,-8.94305 6.15715,-8.08656 8.27806,-13.22948 13.65304,-33.10675 l 3.52236,-13.02609 -3.18326,-15.0762 c -1.75079,-8.29191 -2.77881,-15.48065 -2.28447,-15.97498 0.49432,-0.49433 7.85218,-1.20563 16.35077,-1.58065 12.7212,-0.56137 16.27635,-0.38145 20.11661,1.01802 2.56554,0.93495 7.46823,1.6999 10.89488,1.6999 6.14473,0 6.26363,-0.0582 8.66064,-4.24012 1.40086,-2.44398 3.78509,-4.78007 5.62844,-5.51477 4.85902,-1.93668 37.01314,-20.12957 39.4534,-22.32285 1.77278,-1.59336 2.87693,-1.75559 6.39612,-0.93978 2.33939,0.54232 6.33712,0.99748 8.88383,1.01147 3.63048,0.0199 4.74237,-0.40275 5.14892,-1.9574 0.41863,-1.60089 2.54615,-2.31957 11.04524,-3.73107 14.15358,-2.35058 15.55976,-2.27364 17.68353,0.96765 2.50264,3.8195 7.63526,5.65235 19.47157,6.95328 9.74299,1.07085 22.60318,4.77573 26.81332,7.72463 1.3617,0.95377 1.65253,1.82891 0.96759,2.91163 -1.69651,2.68177 -1.10325,6.36758 1.5941,9.904 3.34607,4.38691 5.54651,13.46804 3.56764,14.72348 -0.75711,0.48033 -1.68737,0.88067 -2.06725,0.88965 -0.37988,0.009 -4.45136,3.14295 -9.04774,6.96439 -11.94372,9.93004 -12.64234,11.57438 -12.67343,29.82964 -0.0277,16.27716 -0.59055,19.2657 -3.82125,20.29108 -2.7512,0.8732 -3.82066,3.80973 -4.72318,12.96891 l -0.73052,7.4135 8.27241,9.9392 c 8.87536,10.66364 9.05297,11.19813 6.91518,20.81069 -2.69892,12.13571 -3.10272,13.01713 -6.63348,14.47961 -3.95132,1.63669 -14.01094,10.23942 -14.5382,12.4327 -0.19809,0.82402 0.41922,2.06812 1.37181,2.76467 1.18586,0.86713 2.44125,5.52714 3.98141,14.77904 2.7009,16.22461 2.04746,19.9543 -5.22746,29.83657 -4.48523,6.09275 -4.61762,6.48234 -3.02748,8.90921 2.2383,3.41607 2.06825,7.99106 -0.65183,17.53715 -3.04949,10.70211 -2.90986,14.00752 0.99855,23.63961 2.71097,6.68104 3.14881,8.83256 2.38639,11.72623 -0.51357,1.94915 -1.44523,5.5179 -2.07036,7.93056 -1.00044,3.86119 -1.71787,4.60865 -5.98919,6.23988 -3.3561,1.2817 -5.70127,3.13565 -7.60451,6.01163 -2.67789,4.04658 -2.7145,4.33465 -1.36107,10.71229 0.76495,3.60463 3.22861,10.35419 5.47479,14.999 2.24618,4.64482 4.08397,8.88915 4.08397,9.43185 0,0.54269 -3.248,0.98672 -7.21778,0.98672 h -7.21779 l -10.90456,9.11443 c -5.99752,5.01294 -10.90457,9.66989 -10.90457,10.34876 0,0.67887 1.69069,2.96573 3.75707,5.08191 l 3.75707,3.84759 -4.09689,7.39057 c -2.25329,4.06481 -5.53355,8.90465 -7.28946,10.75518 -3.08473,3.25097 -5.73689,9.6702 -5.70796,13.8154 0.008,1.1046 2.92576,5.36633 6.48456,9.47051 6.62438,7.63956 11.62377,16.76427 11.62377,21.2153 0,1.37453 -0.98186,4.71882 -2.18192,7.43174 -1.70747,3.86004 -2.72998,4.93261 -4.70233,4.93261 -2.38451,0 -5.31025,2.67769 -9.10605,8.33401 -1.2963,1.93167 -2.96189,2.50759 -8.79754,3.04193 l -7.19852,0.65912 -14.4833,22.34459 c -9.66907,14.91729 -14.30838,23.01345 -13.95709,24.35678 0.81619,3.12117 -10.53591,12.10803 -17.36384,13.74603 -6.96436,1.67073 -10.68911,0.79497 -10.68911,-2.5132 0,-3.4847 -2.76811,-5.57235 -9.81254,-7.40039 -7.18595,-1.86477 -7.33588,-1.78333 -13.35786,7.25548 -5.32777,7.99682 -5.95217,10.84744 -4.55798,20.80892 1.84805,13.20435 3.89784,17.93587 10.61258,24.49695 l 6.00042,5.86312 -11.75339,8.0347 c -13.55593,9.26695 -15.73349,12.44516 -11.18732,16.32823 1.47303,1.25817 3.74145,3.00714 5.04096,3.88661 l 2.36271,1.59903 -3.73012,11.42855 c -2.05157,6.28571 -3.73012,12.88171 -3.73012,14.65779 0,3.21801 -1.49707,3.96085 -5.07646,2.51894 z"
       id="path1"
       transform="scale(0.26458333)" />
  </g>
</svg>
